#N canvas 254 170 1011 693 10;
#X obj -25 -883 pix_image;
#X obj 287 15 pix_data;
#X obj 57 -1003 bng 15 250 50 0 empty empty empty 0 -6 0 8 -262144
-1 -1;
#N canvas 0 22 450 300 openpanel 0;
#X obj 114 62 inlet;
#X obj 121 254 outlet;
#X obj 114 125 openpanel;
#X msg 114 162 set open \$1;
#X obj 114 199 t b a;
#X connect 0 0 2 0;
#X connect 2 0 3 0;
#X connect 3 0 4 0;
#X connect 4 0 1 0;
#X connect 4 1 1 0;
#X restore 57 -976 pd openpanel;
#X obj -25 -853 pix_texture;
#X msg 57 -947 open /Users/xcorex/Documents/Projects/MobmuPlat/Projects/JalanJalanSeniSuara/jjs_heatmap.png
;
#X obj 119 -823 pix_info . . . .;
#X floatatom 132 -631 5 0 0 0 - - -, f 5;
#X floatatom 95 -670 5 0 0 0 - - -, f 5;
#X obj 309 40 unpack f f f;
#X obj 95 -699 change;
#X obj 132 -737 change;
#X floatatom 266 173 5 0 0 0 - - -, f 5;
#X floatatom 310 173 5 0 0 0 - - -, f 5;
#X floatatom 355 173 5 0 0 0 - - -, f 5;
#X msg 171 -541 reset;
#X obj 148 -519 pack f f;
#X obj 149 -390 gemwin;
#X msg 132 -437 create \, 1;
#X obj 132 -597 pack f f;
#X floatatom 177 -632 5 0 0 0 - - -, f 5;
#X obj 132 -569 t b a b b;
#X msg 183 -469 destroy;
#X obj 312 -541 loadbang;
#X obj 312 -519 delay 500;
#X obj 80 -570 /;
#X obj -118 -627 rectangle 4 4;
#X msg 149 -491 dimen \$1 \$2;
#X obj 80 -547 * 4;
#X floatatom 80 -524 5 0 0 0 - - -, f 5;
#X text 178 -648 height;
#X text 126 -650 width;
#X text 52 -698 width;
#X obj 22 -102 translateXYZ;
#X obj -25 -984 gemhead 0;
#X floatatom -4 -181 5 0 0 0 - - -, f 5;
#X floatatom 219 -328 5 0 0 0 - - -, f 5;
#X floatatom 46 -172 5 0 0 0 - - -, f 5;
#X obj 236 -351 - 4;
#X obj 236 -278 * -1;
#X obj 80 -414 * 2;
#X obj 219 -391 gemmouse 1 8;
#X obj 219 -303 *;
#X obj -2 -240 -;
#X obj 287 210 vsl 15 128 0 1 0 0 empty empty R 0 -9 0 10 -261234 -1
-1 0 1;
#X obj 311 210 vsl 15 128 0 1 0 0 empty empty G 0 -9 0 10 -204786 -1
-1 12700 1;
#X obj 336 210 vsl 15 128 0 1 0 0 empty empty B 0 -9 0 10 -203904 -1
-1 0 1;
#X obj 346 -212 clip 0;
#X obj 346 -310 / 8;
#X obj 346 -273 *;
#X floatatom 346 -239 5 0 0 0 - - -, f 5;
#X floatatom 346 -143 5 0 0 0 - - -, f 5;
#X obj 293 -311 *;
#X obj 293 -278 clip 0;
#X floatatom 293 -143 5 0 0 0 - - -, f 5;
#X text 285 -162 Pixel X;
#X text 345 -162 Pixel Y;
#X obj 412 -324 select 1;
#X obj 346 -120 /;
#X obj 293 -116 /;
#X floatatom 346 -97 5 0 0 0 - - -, f 5;
#X obj 346 -77 * -1;
#X obj 346 -55 + 1;
#X floatatom 346 -31 5 0 0 0 - - -, f 5;
#X msg 378 -519 title Jalan_jalan_Sound_Art;
#X msg 312 -498 reset \, create \, 1;
#X obj 15 -24 mesh_line 3;
#X obj -110 -106 rotateXYZ 0 0 90;
#X obj -111 -12 mesh_line 3;
#X obj -110 -128 translateXYZ;
#X obj -110 -82 scaleXYZ 0.2 1 1;
#X obj 22 -79 scaleXYZ 0.2 1 1;
#X text -121 -178 Crosshair;
#X obj -118 -658 alpha;
#X msg -43 -704 1 1 1 \$1;
#X floatatom -43 -724 5 0 0 0 - - -, f 5;
#X obj -118 -678 color 1 1 1 1;
#X obj -110 -151 gemhead -2;
#X obj 21 -128 gemhead -2;
#X obj 118 177 bng 15 250 50 0 open_map_image empty Open_Map_Image
17 7 0 10 -4160 -1 -1;
#X obj 118 153 bng 15 250 50 0 open_heatmap_image empty Open_Heatmap_Image
17 7 0 10 -258113 -1 -1;
#X obj 121 -1006 r open_heatmap_image;
#X obj 374 -875 gemhead -1;
#X obj 374 -823 pix_image;
#X obj 374 -799 pix_texture;
#X obj 454 -966 bng 15 250 50 0 empty empty empty 0 -6 0 8 -262144
-1 -1;
#N canvas 0 22 450 300 openpanel 0;
#X obj 114 62 inlet;
#X obj 121 254 outlet;
#X obj 114 125 openpanel;
#X msg 114 162 set open \$1;
#X obj 114 199 t b a;
#X connect 0 0 2 0;
#X connect 2 0 3 0;
#X connect 3 0 4 0;
#X connect 4 0 1 0;
#X connect 4 1 1 0;
#X restore 454 -939 pd openpanel;
#X msg 454 -910 open /Users/xcorex/Documents/Projects/MobmuPlat/Projects/JalanJalanSeniSuara/jjs_map.png
;
#X obj 505 -977 r open_map_image;
#X obj 374 -688 rectangle 4 4;
#X obj 374 -719 alpha;
#X obj 374 -739 color 1 1 1 1;
#X msg 464 -783 1 1 1 \$1;
#X floatatom 464 -803 5 0 0 0 - - -, f 5;
#X floatatom 214 223 5 0 0 0 Width pix_img_width -, f 5;
#X floatatom 214 244 5 0 0 0 Height pix_img_height -, f 5;
#X obj 246 -579 s pix_img_width;
#X obj 246 -601 s pix_img_height;
#X obj 103 102 cnv 17 295 40 empty empty Jalan_Jalan_Soundscape 20
22 0 17 -159808 -262144 0;
#X obj 266 369 outlet;
#X obj 310 369 outlet;
#X obj 355 369 outlet;
#X obj 117 277 hsl 128 15 0 1 0 0 empty empty Opacity -2 -8 0 10 -262144
-1 -1 6350 1;
#X obj -105 -38 color 1 0 0;
#X obj 25 -48 color 1 0 0;
#X obj 173 -59 metro 1000;
#X msg 173 -38 bang;
#X floatatom 340 151 5 0 0 0 Refresh_rate - -, f 5;
#X msg 173 -80 1;
#X obj 173 -102 loadbang;
#X msg 168 12 1000;
#X obj 119 199 bng 15 250 50 0 empty empty Reload_Images 17 7 0 10
-262144 -1 -1;
#X msg 532 -811 0;
#X obj 532 -839 loadbang;
#X obj 457 127 * 255;
#X obj 503 127 * 255;
#X obj 556 128 * 255;
#X floatatom 154 320 5 0 0 0 - - -, f 5;
#X floatatom 193 320 5 0 0 0 - - -, f 5;
#X floatatom 115 320 5 0 0 0 - - -, f 5;
#X obj 481 -183 loadbang;
#X msg 487 -139 0.5;
#X connect 0 0 4 0;
#X connect 1 1 9 0;
#X connect 2 0 3 0;
#X connect 3 0 5 0;
#X connect 4 0 1 1;
#X connect 4 0 6 0;
#X connect 4 0 76 0;
#X connect 5 0 0 0;
#X connect 6 1 11 0;
#X connect 6 2 10 0;
#X connect 7 0 25 0;
#X connect 7 0 19 0;
#X connect 7 0 52 1;
#X connect 7 0 53 2;
#X connect 7 0 59 1;
#X connect 7 0 96 0;
#X connect 8 0 20 0;
#X connect 8 0 25 1;
#X connect 9 0 12 0;
#X connect 9 0 114 0;
#X connect 9 1 13 0;
#X connect 9 1 115 0;
#X connect 9 2 14 0;
#X connect 9 2 116 0;
#X connect 10 0 8 0;
#X connect 11 0 7 0;
#X connect 12 0 44 0;
#X connect 13 0 45 0;
#X connect 14 0 46 0;
#X connect 15 0 17 0;
#X connect 16 0 27 0;
#X connect 18 0 17 0;
#X connect 19 0 21 0;
#X connect 20 0 19 1;
#X connect 20 0 47 2;
#X connect 20 0 49 1;
#X connect 20 0 58 1;
#X connect 20 0 97 0;
#X connect 21 0 18 0;
#X connect 21 1 16 0;
#X connect 21 2 15 0;
#X connect 21 3 22 0;
#X connect 22 0 17 0;
#X connect 23 0 24 0;
#X connect 23 0 64 0;
#X connect 24 0 65 0;
#X connect 25 0 28 0;
#X connect 27 0 17 0;
#X connect 28 0 29 0;
#X connect 29 0 26 1;
#X connect 29 0 40 0;
#X connect 29 0 43 1;
#X connect 29 0 89 1;
#X connect 33 0 71 0;
#X connect 34 0 0 0;
#X connect 35 0 33 2;
#X connect 35 0 69 2;
#X connect 36 0 42 0;
#X connect 37 0 33 1;
#X connect 38 0 39 0;
#X connect 39 0 35 0;
#X connect 40 0 42 1;
#X connect 41 0 36 0;
#X connect 41 0 52 0;
#X connect 41 1 38 0;
#X connect 41 1 48 0;
#X connect 41 2 57 0;
#X connect 42 0 43 0;
#X connect 43 0 37 0;
#X connect 43 0 69 1;
#X connect 44 0 99 0;
#X connect 45 0 100 0;
#X connect 46 0 101 0;
#X connect 47 0 51 0;
#X connect 48 0 49 0;
#X connect 49 0 50 0;
#X connect 50 0 47 0;
#X connect 51 0 58 0;
#X connect 52 0 53 0;
#X connect 53 0 54 0;
#X connect 54 0 59 0;
#X connect 57 0 1 0;
#X connect 58 0 60 0;
#X connect 59 0 1 2;
#X connect 60 0 61 0;
#X connect 61 0 62 0;
#X connect 62 0 63 0;
#X connect 63 0 1 3;
#X connect 64 0 17 0;
#X connect 65 0 17 0;
#X connect 67 0 70 0;
#X connect 69 0 67 0;
#X connect 70 0 103 0;
#X connect 71 0 104 0;
#X connect 73 0 26 0;
#X connect 74 0 76 1;
#X connect 75 0 74 0;
#X connect 76 0 73 0;
#X connect 77 0 69 0;
#X connect 78 0 33 0;
#X connect 81 0 3 0;
#X connect 82 0 83 0;
#X connect 83 0 84 0;
#X connect 84 0 91 0;
#X connect 85 0 86 0;
#X connect 86 0 87 0;
#X connect 87 0 83 0;
#X connect 88 0 86 0;
#X connect 90 0 89 0;
#X connect 91 0 90 0;
#X connect 92 0 91 1;
#X connect 93 0 92 0;
#X connect 102 0 93 0;
#X connect 103 0 68 0;
#X connect 104 0 66 0;
#X connect 105 0 106 0;
#X connect 106 0 1 0;
#X connect 107 0 105 1;
#X connect 108 0 105 0;
#X connect 109 0 108 0;
#X connect 109 0 110 0;
#X connect 110 0 107 0;
#X connect 111 0 5 0;
#X connect 111 0 87 0;
#X connect 112 0 92 0;
#X connect 113 0 112 0;
#X connect 114 0 119 0;
#X connect 115 0 117 0;
#X connect 116 0 118 0;
#X connect 120 0 121 0;
#X connect 121 0 102 0;
#X coords 0 -1 1 1 300 250 1 100 100;
