#N canvas 0 22 450 300 10;
#X obj 91 87 change;
#X msg 91 149 0;
#X msg 193 171 0;
#X msg 142 165 1;
#X obj 144 209 tgl 15 0 empty empty empty 17 7 0 10 -262144 -1 -1 0
1;
#X obj 91 28 inlet;
#X obj 144 256 outlet;
#X obj 91 116 moses \$1;
#X obj 142 138 moses \$2;
#X connect 0 0 7 0;
#X connect 1 0 4 0;
#X connect 2 0 4 0;
#X connect 3 0 4 0;
#X connect 4 0 6 0;
#X connect 5 0 0 0;
#X connect 7 0 1 0;
#X connect 7 1 8 0;
#X connect 8 0 3 0;
#X connect 8 1 2 0;
