#N canvas 0 22 450 300 10;
#X obj 340 -23 inlet;
#X obj 384 592 outlet;
#X obj 1 209 route /posx /posy;
#X obj 340 15 list trim;
#X msg 1 291 list /gpsPanel getpix \$1 \$2;
#X obj 1 267 pack f f;
#X floatatom 46 240 5 0 0 0 - - -, f 5;
#X floatatom 1 240 5 0 0 0 - - -, f 5;
#X obj 382 210 route /gpsPanel;
#X obj 198 213 loadbang;
#X msg 198 237 1;
#X obj 198 260 metro 1000;
#X msg 198 289 list /gpsPanel updategpspos;
#X msg 755 273 list /enableLocation \$1;
#X obj 755 211 loadbang;
#X msg 755 253 1;
#X obj 755 232 delay 3000;
#X obj 755 301 send toSystem;
#X obj 609 210 route /enableLog;
#X msg 609 234 list /enableLogging \$1;
#X obj 382 240 unpack f f f f f;
#X msg 428 446 list /r \$1;
#X msg 451 474 list /g \$1;
#X msg 475 506 list /b \$1;
#X obj 428 399 / 255;
#X obj 451 369 / 255;
#X obj 475 414 / 255;
#X obj 666 517 print;
#X msg 666 455 list /gpsPanel setgpsbound \$1 \$2 \$3 \$4 \$5 \$6 \$7
\$8;
#X text 725 393 Kiri bawah \, Kanan atas;
#X obj 403 293 outlet;
#X obj 463 293 outlet;
#X obj 528 293 outlet;
#X obj 666 405 inlet;
#X connect 0 0 3 0;
#X connect 2 0 7 0;
#X connect 2 1 6 0;
#X connect 3 0 2 0;
#X connect 3 0 18 0;
#X connect 3 0 8 0;
#X connect 4 0 1 0;
#X connect 5 0 4 0;
#X connect 6 0 5 1;
#X connect 7 0 5 0;
#X connect 8 0 20 0;
#X connect 9 0 10 0;
#X connect 10 0 11 0;
#X connect 11 0 12 0;
#X connect 12 0 1 0;
#X connect 13 0 17 0;
#X connect 14 0 16 0;
#X connect 15 0 13 0;
#X connect 16 0 15 0;
#X connect 18 0 19 0;
#X connect 19 0 17 0;
#X connect 20 2 24 0;
#X connect 20 2 30 0;
#X connect 20 3 25 0;
#X connect 20 3 31 0;
#X connect 20 4 26 0;
#X connect 20 4 32 0;
#X connect 21 0 1 0;
#X connect 22 0 1 0;
#X connect 23 0 1 0;
#X connect 24 0 21 0;
#X connect 25 0 22 0;
#X connect 26 0 23 0;
#X connect 28 0 27 0;
#X connect 28 0 1 0;
#X connect 33 0 28 0;
